<svg width="28" height="42" viewBox="0 0 28 42" fill="none" xmlns="http://www.w3.org/2000/svg">
<path fill-rule="evenodd" clip-rule="evenodd" d="M18.8213 2.24063H8.96252C5.25012 2.24063 2.24063 5.25012 2.24063 8.96251V34.0196H25.5432V8.96252C25.5432 5.25012 22.5337 2.24063 18.8213 2.24063ZM8.96252 0C4.01266 0 0 4.01265 0 8.96251V36.2602H27.7838V8.96252C27.7838 4.01266 23.7711 0 18.8213 0H8.96252Z" fill="#CD433B"/>
<path d="M8.02582 39.2409C8.02582 40.4168 7.07258 41.3701 5.8967 41.3701C4.72082 41.3701 3.76758 40.4168 3.76758 39.2409C3.76758 38.0651 4.72082 37.1118 5.8967 37.1118C7.07258 37.1118 8.02582 38.0651 8.02582 39.2409Z" fill="#CD433B"/>
<path d="M25.1237 39.1758C25.1237 40.3516 24.1705 41.3049 22.9946 41.3049C21.8187 41.3049 20.8655 40.3516 20.8655 39.1758C20.8655 37.9999 21.8187 37.0466 22.9946 37.0466C24.1705 37.0466 25.1237 37.9999 25.1237 39.1758Z" fill="#CD433B"/>
<path d="M5.82593 22.8185C5.82593 22.3434 6.21628 21.9583 6.6978 21.9583H21.5347C22.0162 21.9583 22.4066 22.3434 22.4066 22.8185V31.853C22.4066 32.3281 22.0162 32.7133 21.5347 32.7133H6.6978C6.21628 32.7133 5.82593 32.3281 5.82593 31.853V22.8185Z" fill="#CD433B"/>
<path fill-rule="evenodd" clip-rule="evenodd" d="M11.6097 20.2938V21.0618H9.85986V20.1678L9.86754 20.1154C9.9132 19.8038 10.0765 19.385 10.4277 19.0305C10.8038 18.6507 11.3706 18.373 12.1213 18.373H15.6647C16.4154 18.373 16.9822 18.6507 17.3583 19.0305C17.7095 19.385 17.8728 19.8038 17.9185 20.1154L17.9261 20.1678V21.0618H16.1763V20.2938C16.161 20.2438 16.1242 20.1628 16.0586 20.0965C16.0228 20.0604 15.9808 20.0308 15.9282 20.0091C15.8766 19.9877 15.7942 19.9654 15.6647 19.9654H12.1213C11.9918 19.9654 11.9094 19.9877 11.8578 20.0091C11.8052 20.0308 11.7632 20.0604 11.7274 20.0965C11.6618 20.1628 11.6249 20.2438 11.6097 20.2938Z" fill="#CD433B"/>
</svg>
