<svg width="61" height="61" viewBox="0 0 61 61" fill="none" xmlns="http://www.w3.org/2000/svg">
<path d="M55.4642 18.8871C54.9889 18.2009 54.2086 17.7917 53.3749 17.7917H18.638L15.7049 10.7512C14.9119 8.85008 13.0717 7.625 11.013 7.625H5.08325V12.7083H11.013L23.0706 41.6452C23.4646 42.5907 24.3898 43.2083 25.4166 43.2083H45.7499C46.8098 43.2083 47.7578 42.55 48.1315 41.5613L55.7565 21.228C56.0488 20.4452 55.9395 19.5708 55.4642 18.8871ZM43.9885 38.125H27.1119L20.7577 22.875H49.7073L43.9885 38.125Z" fill="#E7E7E7"/>
<path d="M26.6875 53.375C28.7931 53.375 30.5 51.6681 30.5 49.5625C30.5 47.4569 28.7931 45.75 26.6875 45.75C24.5819 45.75 22.875 47.4569 22.875 49.5625C22.875 51.6681 24.5819 53.375 26.6875 53.375Z" fill="#E7E7E7"/>
<path d="M44.4792 53.375C46.5848 53.375 48.2917 51.6681 48.2917 49.5625C48.2917 47.4569 46.5848 45.75 44.4792 45.75C42.3737 45.75 40.6667 47.4569 40.6667 49.5625C40.6667 51.6681 42.3737 53.375 44.4792 53.375Z" fill="#E7E7E7"/>
</svg>
