<svg width="26" height="26" viewBox="0 0 26 26" fill="none" xmlns="http://www.w3.org/2000/svg">
<path d="M21.3972 4.60199H4.60131C3.44345 4.60199 2.50183 5.54361 2.50183 6.70147V19.2984C2.50183 20.4562 3.44345 21.3979 4.60131 21.3979H21.3972C22.555 21.3979 23.4967 20.4562 23.4967 19.2984V6.70147C23.4967 5.54361 22.555 4.60199 21.3972 4.60199ZM21.3972 6.70147V7.23789L12.9992 13.7704L4.60131 7.23894V6.70147H21.3972ZM4.60131 19.2984V9.89689L12.3547 15.9277C12.5437 16.0757 12.7715 16.1491 12.9992 16.1491C13.227 16.1491 13.4548 16.0757 13.6438 15.9277L21.3972 9.89689L21.3993 19.2984H4.60131Z" fill="#E7E7E7"/>
</svg>
