<svg width="26" height="26" viewBox="0 0 26 26" fill="none" xmlns="http://www.w3.org/2000/svg">
<rect width="25.1938" height="24.8666" transform="translate(0.404297 0.62793)" fill="#DA3831"/>
<path d="M13.0012 15.1335C15.3169 15.1335 17.2002 13.2747 17.2002 10.989C17.2002 8.70338 15.3169 6.8446 13.0012 6.8446C10.6855 6.8446 8.80225 8.70338 8.80225 10.989C8.80225 13.2747 10.6855 15.1335 13.0012 15.1335ZM13.0012 8.91682C14.1591 8.91682 15.1007 9.84621 15.1007 10.989C15.1007 12.1319 14.1591 13.0613 13.0012 13.0613C11.8433 13.0613 10.9017 12.1319 10.9017 10.989C10.9017 9.84621 11.8433 8.91682 13.0012 8.91682Z" fill="#E7E7E7"/>
<path d="M12.3924 23.2296C12.5751 23.3581 12.7882 23.4223 13.0013 23.4223C13.2144 23.4223 13.4275 23.3581 13.6101 23.2296C13.9293 23.0068 21.4297 17.6615 21.3992 10.989C21.3992 6.41873 17.6317 2.70013 13.0013 2.70013C8.37089 2.70013 4.60336 6.41873 4.60336 10.9838C4.57292 17.6615 12.0733 23.0068 12.3924 23.2296ZM13.0013 4.77235C16.4749 4.77235 19.2997 7.56052 19.2997 10.9942C19.3218 15.5924 14.6935 19.7213 13.0013 21.0755C11.3102 19.7203 6.6808 15.5904 6.70285 10.989C6.70285 7.56052 9.5277 4.77235 13.0013 4.77235Z" fill="#E7E7E7"/>
</svg>
