<svg width="26" height="26" viewBox="0 0 26 26" fill="none" xmlns="http://www.w3.org/2000/svg">
<path d="M23.4893 8.74858C23.4862 8.673 23.4788 8.59637 23.4589 8.52394C23.4515 8.49769 23.4368 8.4725 23.4274 8.44626C23.4053 8.38642 23.3854 8.32764 23.3539 8.27305C23.3371 8.24471 23.314 8.22161 23.2941 8.19432C23.2605 8.14708 23.2279 8.09879 23.187 8.05785C23.1628 8.03476 23.1314 8.01586 23.1051 7.99382C23.0642 7.96023 23.0264 7.92348 22.9791 7.89514C22.9749 7.89199 22.9697 7.89199 22.9644 7.88884C22.9613 7.88674 22.9592 7.88464 22.956 7.88254L13.5304 2.64433C13.2144 2.46798 12.8302 2.46903 12.5122 2.64328L3.04245 7.88149C3.0393 7.88464 3.03615 7.88884 3.0309 7.89199C3.02775 7.89304 3.02355 7.89409 3.0204 7.89619C2.98366 7.91719 2.95637 7.94763 2.92173 7.97282C2.88394 8.00117 2.84405 8.02636 2.81045 8.0589C2.77896 8.09144 2.75482 8.12923 2.72753 8.16598C2.69918 8.20272 2.66769 8.23526 2.6446 8.27515C2.6173 8.32029 2.60261 8.37172 2.58266 8.42106C2.56796 8.4557 2.54907 8.48825 2.53962 8.52604C2.51968 8.59637 2.51338 8.67195 2.50918 8.74648C2.50813 8.76433 2.50183 8.78007 2.50183 8.79897V8.80002V8.80107V17.199C2.50183 17.5801 2.70863 17.9317 3.04245 18.1165L12.467 23.3515L12.4681 23.3526C12.4691 23.3526 12.4691 23.3526 12.4702 23.3536L12.4912 23.3652C12.5363 23.3904 12.5856 23.404 12.6329 23.4219C12.6665 23.4355 12.699 23.4534 12.7347 23.4628C12.8197 23.4849 12.91 23.4975 12.9992 23.4975C13.0885 23.4975 13.1788 23.4849 13.2659 23.4628C13.3005 23.4534 13.3331 23.4355 13.3677 23.4219C13.4149 23.404 13.4643 23.3914 13.5094 23.3652L13.5304 23.3536C13.5315 23.3526 13.5315 23.3526 13.5325 23.3526L13.5336 23.3515L22.9581 18.1165C23.2899 17.9317 23.4967 17.5801 23.4967 17.199V8.80107V8.80002V8.79897C23.4967 8.78112 23.4904 8.76643 23.4893 8.74858ZM12.9699 12.8657L5.71194 8.80632L8.61133 7.20231L15.7853 11.3016L12.9699 12.8657ZM13.0202 4.76271L20.2855 8.80107L17.9299 10.1101L10.7601 6.01295L13.0202 4.76271ZM4.60131 10.5909L11.9495 14.7017V20.6642L4.60131 16.5807V10.5909ZM14.049 20.6642L14.0511 14.7027L17.1982 12.9412V16.1493L19.2977 15.0995V11.7666L21.3972 10.5919V16.5807L14.049 20.6642Z" fill="#E7E7E7"/>
</svg>
