<svg width="46" height="35" viewBox="0 0 46 35" fill="none" xmlns="http://www.w3.org/2000/svg">
<path fill-rule="evenodd" clip-rule="evenodd" d="M15.4036 16.8026C8.9599 16.8026 3.6033 21.4571 2.51244 27.5873H28.2948C27.2039 21.4571 21.8473 16.8026 15.4036 16.8026ZM30.6353 27.5873C29.5209 20.1757 23.1259 14.4932 15.4036 14.4932C7.68134 14.4932 1.2863 20.1757 0.171969 27.5873C0.0587068 28.3407 0 29.1119 0 29.8968H30.8072C30.8072 29.1119 30.7485 28.3407 30.6353 27.5873Z" fill="#CD433B"/>
<path fill-rule="evenodd" clip-rule="evenodd" d="M29.8835 34.211C30.3936 34.211 30.8072 33.7974 30.8072 33.2872V32.8435C30.8072 32.3333 30.3936 31.9197 29.8835 31.9197H0.923773C0.413587 31.9197 0 32.3333 0 32.8434V33.2872C0 33.7974 0.413588 34.211 0.923773 34.211H29.8835Z" fill="#CD433B"/>
<path d="M14.2068 12.3149H16.4981V16.0492H14.2068V12.3149Z" fill="#CD433B"/>
<path d="M11.9131 11.0439C11.9131 10.5337 12.3267 10.1201 12.8369 10.1201H17.8632C18.3734 10.1201 18.787 10.5337 18.787 11.0439V11.4876C18.787 11.9978 18.3734 12.4114 17.8632 12.4114H12.8369C12.3267 12.4114 11.9131 11.9978 11.9131 11.4876V11.0439Z" fill="#CD433B"/>
<path fill-rule="evenodd" clip-rule="evenodd" d="M35.8324 10.5293C36.3785 9.86151 37.1192 8.95575 38.4399 8.12289C39.5747 7.40725 40.7092 7.31086 41.5426 7.29534C41.7292 7.29186 41.8816 7.29194 42.014 7.29201C42.2099 7.29211 42.3622 7.29219 42.5175 7.28069C42.576 7.27636 42.6187 7.27086 42.6486 7.26595C42.66 7.243 42.6742 7.21104 42.6898 7.16789C42.7375 7.03624 42.7816 6.84922 42.8148 6.60167C42.8815 6.10526 42.8911 5.47358 42.8662 4.78113C42.8415 4.09491 42.7846 3.38498 42.729 2.73837C42.7211 2.64648 42.7132 2.55518 42.7053 2.46497C42.6941 2.33607 42.6831 2.2094 42.6727 2.08639C41.9332 2.21013 41 2.43396 40.0229 2.6977C39.0669 2.95575 38.1365 3.23244 37.3738 3.45924C37.0121 3.5668 36.6881 3.66314 36.4171 3.74095C35.4317 4.0238 34.1342 4.00489 33.0055 3.90515C31.8471 3.80278 30.7353 3.60184 30.0536 3.44507L30.0397 3.44188L30.0259 3.43825C28.3517 2.99842 24.182 2.26022 20.8995 2.7619C16.7261 3.39976 13.8781 4.80429 11.3742 6.31082C10.9519 6.56491 10.8042 6.80533 10.7531 6.95491C10.7022 7.1037 10.7129 7.26016 10.7868 7.42067C10.9696 7.81779 11.3671 7.96684 11.568 7.91937C11.8 7.86457 12.1595 7.77249 12.6178 7.65507C12.7657 7.6172 12.9238 7.57669 13.0912 7.53395C13.77 7.36069 14.5856 7.15502 15.4406 6.95309C17.129 6.55427 19.0413 6.1525 20.3615 6.06123L20.3774 6.06013L20.3933 6.05958C21.2168 6.03112 22.5279 6.08055 23.8398 6.32037C25.1126 6.55304 26.5684 6.99571 27.5128 7.87707C27.7247 8.07479 27.9152 8.28186 28.0517 8.49865C28.1766 8.69695 28.3456 9.04477 28.2634 9.46322C28.1708 9.93496 27.8285 10.1852 27.5878 10.2973C27.3589 10.404 27.1165 10.4422 26.933 10.4595C26.5555 10.4951 26.1034 10.4671 25.7054 10.4328C25.5059 10.4156 25.3027 10.395 25.1111 10.3756L25.0902 10.3735C24.8894 10.3531 24.7026 10.3344 24.5306 10.3201C24.2476 10.2967 23.763 10.265 23.2966 10.2653C23.0629 10.2654 22.8489 10.2736 22.6747 10.2917C22.516 10.3082 22.4413 10.3282 22.4241 10.3328C22.4201 10.3338 22.4192 10.3341 22.4211 10.3333C21.9074 10.5596 21.6929 10.7895 21.6083 10.9309C21.5331 11.0566 21.526 11.1658 21.5556 11.278C21.6358 11.5812 21.9783 11.8645 22.2625 11.8951C24.5902 12.146 30.0292 12.1296 32.8937 12.0306C33.7024 12.0026 34.2039 11.8695 34.5536 11.7022C34.8974 11.5377 35.1595 11.3099 35.455 10.9788C35.5727 10.8469 35.6965 10.6955 35.8324 10.5293ZM35.3507 13.3689C34.7084 13.6762 33.9396 13.8431 32.9575 13.877C30.0917 13.9761 24.5358 13.9983 22.0646 13.732C21.0221 13.6197 20.0458 12.796 19.7694 11.7501C19.6208 11.1877 19.676 10.5618 20.023 9.98205C20.3606 9.41803 20.9283 8.97209 21.676 8.6426C21.9396 8.52648 22.2441 8.47897 22.4837 8.45406C22.7443 8.42697 23.0272 8.41787 23.2956 8.41773C23.8336 8.41743 24.3743 8.45334 24.6829 8.47887C24.7605 8.48529 24.84 8.49248 24.9203 8.50008C24.4994 8.3529 24.0214 8.23172 23.5076 8.1378C22.3537 7.92687 21.186 7.88209 20.4731 7.90549C19.3228 7.98723 17.5564 8.35171 15.8653 8.75116C15.0265 8.94927 14.2235 9.15173 13.5482 9.3241C13.39 9.36447 13.2379 9.40344 13.0935 9.44044C12.6285 9.55957 12.2433 9.65826 11.9928 9.71743C10.7411 10.0131 9.56831 9.1919 9.10856 8.19336C8.86116 7.65603 8.78241 7.0083 9.00478 6.35751C9.22688 5.70752 9.71495 5.15299 10.4217 4.72774C13.0523 3.14499 16.1314 1.62166 20.6204 0.935562C24.2582 0.379568 28.6995 1.1815 30.4811 1.6476C31.0919 1.78734 32.1121 1.97145 33.1682 2.06477C34.2617 2.16141 35.2696 2.14818 35.9073 1.96512C36.1508 1.89524 36.4578 1.80397 36.8081 1.69983C37.5808 1.47011 38.5644 1.17773 39.5414 0.913991C40.9418 0.536003 42.4778 0.173632 43.496 0.138436L44.4192 0.106521L44.4511 1.02975C44.4615 1.33108 44.4989 1.76209 44.5453 2.29658C44.5532 2.38814 44.5614 2.48273 44.5698 2.58024C44.6255 3.22938 44.6861 3.97885 44.7125 4.71472C44.7388 5.44437 44.7332 6.19747 44.6459 6.84757C44.6022 7.17327 44.5346 7.49993 44.4269 7.79727C44.3215 8.0881 44.157 8.40905 43.8843 8.66277C43.4857 9.03359 42.9702 9.09977 42.6539 9.12319C42.4381 9.13918 42.1638 9.13972 41.9122 9.14022C41.7924 9.14046 41.6778 9.14068 41.577 9.14256C40.8598 9.15592 40.1331 9.23936 39.4254 9.68564C38.3822 10.3435 37.8641 10.9732 37.3332 11.6184C37.1727 11.8135 37.0111 12.0099 36.8334 12.209C36.4508 12.6377 35.999 13.0589 35.3507 13.3689ZM26.4883 9.48311C26.4946 9.49308 26.4932 9.49254 26.488 9.48255C26.4881 9.48274 26.4882 9.48292 26.4883 9.48311Z" fill="#CD433B"/>
</svg>
