<svg width="52" height="51" viewBox="0 0 52 51" fill="none" xmlns="http://www.w3.org/2000/svg">
<path d="M1.85059 12.517C1.85059 11.7759 2.45139 11.175 3.19252 11.175H43.0462C43.7873 11.175 44.3881 11.7759 44.3881 12.517V37.1124C44.3881 37.8535 43.7873 38.4544 43.0462 38.4544H3.19252C2.45139 38.4544 1.85059 37.8535 1.85059 37.1124V12.517Z" stroke="#CD433B" stroke-width="2"/>
<path fill-rule="evenodd" clip-rule="evenodd" d="M16.8025 6.4726V8.73164H12.1187V6.10189L12.1392 5.94781C12.2614 5.03113 12.6986 3.79914 13.6386 2.75632C14.6453 1.63932 16.1626 0.82251 18.172 0.82251H27.6569C29.6664 0.82251 31.1836 1.63932 32.1904 2.75632C33.1303 3.79914 33.5675 5.03113 33.6897 5.94781L33.7103 6.10189V8.73164H29.0264V6.4726C28.9856 6.3254 28.887 6.08725 28.7112 5.89223C28.6154 5.7859 28.503 5.69888 28.3622 5.63492C28.2241 5.57218 28.0036 5.50638 27.6569 5.50638H18.172C17.8254 5.50638 17.6049 5.57218 17.4668 5.63492C17.326 5.69888 17.2136 5.7859 17.1177 5.89223C16.942 6.08725 16.8434 6.3254 16.8025 6.4726Z" fill="#CD433B"/>
<path d="M51.1607 35.3302C51.1607 43.7571 44.3294 50.5885 35.9025 50.5885C27.4756 50.5885 20.6443 43.7571 20.6443 35.3302C20.6443 26.9034 27.4756 20.072 35.9025 20.072C44.3294 20.072 51.1607 26.9034 51.1607 35.3302Z" fill="white"/>
<path fill-rule="evenodd" clip-rule="evenodd" d="M31.0507 24.2482C32.8635 22.4618 35.0759 22.1742 36.6058 22.3223L36.1546 26.9844C35.5539 26.9262 34.8795 27.0511 34.3383 27.5844C33.7784 28.1362 32.9488 29.5282 32.9488 32.901H28.2649C28.2649 28.851 29.2566 26.0161 31.0507 24.2482Z" fill="#CD433B"/>
<path fill-rule="evenodd" clip-rule="evenodd" d="M41.2964 24.2587C39.48 22.4726 37.2657 22.1945 35.7431 22.3418L36.1942 27.0039C36.8023 26.9451 37.4746 27.0697 38.0123 27.5984C38.5695 28.1463 39.4001 29.5358 39.4001 32.9206L44.084 32.9206C44.084 28.863 43.0933 26.0257 41.2964 24.2587Z" fill="#CD433B"/>
<path d="M27.3081 32.9014H45.453V38.6747C45.453 43.6853 41.3911 47.7472 36.3806 47.7472C31.37 47.7472 27.3081 43.6853 27.3081 38.6747V32.9014Z" fill="#CD433B"/>
<path d="M35.7949 40.1055H36.7933V42.6015H35.7949V40.1055Z" fill="white"/>
<path d="M38.2912 39.1069C38.2912 40.2097 37.3972 41.1037 36.2944 41.1037C35.1916 41.1037 34.2976 40.2097 34.2976 39.1069C34.2976 38.0041 35.1916 37.1101 36.2944 37.1101C37.3972 37.1101 38.2912 38.0041 38.2912 39.1069Z" fill="white"/>
</svg>
