<svg width="108" height="80" viewBox="0 0 108 80" fill="none" xmlns="http://www.w3.org/2000/svg">
<path fill-rule="evenodd" clip-rule="evenodd" d="M33.9987 41.0916C32.471 42.5272 30.3988 44.4744 26.9522 46.0619C23.9906 47.4259 21.2264 47.2979 19.2135 47.0707C18.7627 47.0198 18.3957 46.9712 18.0768 46.929C17.6048 46.8666 17.2379 46.818 16.86 46.7964C16.7177 46.7883 16.613 46.788 16.5393 46.7903C16.5045 46.842 16.4603 46.9145 16.4089 47.0135C16.2522 47.3156 16.0866 47.7522 15.9279 48.3381C15.6097 49.513 15.386 51.032 15.2261 52.7083C15.0677 54.3696 14.9795 56.0982 14.9081 57.6738C14.8979 57.8977 14.888 58.1202 14.8783 58.3401C14.8644 58.6542 14.8507 58.9629 14.8367 59.2626C16.6578 59.1992 18.9774 58.9562 21.4154 58.631C23.8007 58.3128 26.1304 57.9415 28.0401 57.6372C28.9457 57.4929 29.7569 57.3636 30.4347 57.2622C32.8987 56.8936 36.0189 57.3511 38.7068 57.9498C41.4654 58.5642 44.0805 59.4014 45.6732 59.9955L45.7057 60.0076L45.7378 60.0207C49.6321 61.6121 59.4445 64.7147 67.5127 64.5481C77.771 64.3363 85.0789 61.8564 91.5902 59.0214C92.6884 58.5433 93.1208 58.0109 93.2914 57.6667C93.4611 57.3244 93.4852 56.944 93.3581 56.5338C93.0436 55.5189 92.1333 55.0336 91.634 55.0842C91.0576 55.1426 90.1624 55.2503 89.0207 55.3877C88.6525 55.432 88.2586 55.4794 87.8416 55.5292C86.1511 55.7311 84.1206 55.9677 81.9966 56.1828C77.8017 56.6077 73.0664 56.9686 69.8566 56.7693L69.818 56.7669L69.7795 56.7632C67.7862 56.5703 64.6429 56.0349 61.558 55.0406C58.5651 54.0758 55.1981 52.547 53.2023 50.1235C52.7546 49.5799 52.3613 49.0205 52.1012 48.4548C51.8633 47.9373 51.5666 47.0456 51.8975 46.0635C52.2705 44.9563 53.1746 44.4621 53.7902 44.2682C54.3755 44.0839 54.9716 44.0688 55.4194 44.0854C56.3402 44.1196 57.4206 44.3304 58.3687 44.5395C58.844 44.6443 59.327 44.7584 59.7824 44.866L59.8323 44.8778C60.3096 44.9905 60.7536 45.0951 61.1636 45.184C61.838 45.3303 62.9955 45.5605 64.1193 45.7079C64.6826 45.7819 65.2008 45.83 65.6263 45.8417C66.0139 45.8524 66.2003 45.8279 66.2431 45.8223C66.253 45.821 66.2552 45.8207 66.2506 45.8221C67.5602 45.4398 68.1498 44.9541 68.3987 44.6402C68.6198 44.3613 68.6716 44.1003 68.6358 43.8205C68.539 43.0645 67.8035 42.2732 67.1285 42.1092C61.5998 40.7658 48.4894 39.0783 41.5561 38.4074C39.5987 38.218 38.3482 38.3796 37.4525 38.6716C36.5717 38.9587 35.8679 39.4244 35.0509 40.1283C34.7254 40.4088 34.3789 40.7343 33.9987 41.0916ZM36.0609 34.4026C37.7063 33.8662 39.6116 33.7082 41.9886 33.9382C48.9252 34.6094 62.319 36.3199 68.1887 37.7461C70.6647 38.3477 72.7555 40.6423 73.0895 43.2503C73.269 44.6525 72.9372 46.143 71.917 47.4297C70.9246 48.6815 69.4151 49.5757 67.5089 50.1322C66.8371 50.3284 66.0882 50.3461 65.503 50.3301C64.8664 50.3126 64.1819 50.2447 63.5352 50.1598C62.2389 49.9897 60.9473 49.7315 60.2119 49.572C60.0271 49.5319 59.8378 49.4894 59.6468 49.4456C60.6142 49.9338 61.7273 50.3776 62.9356 50.767C65.6488 51.6416 68.4481 52.1202 70.1734 52.2902C72.9708 52.4585 77.3427 52.1411 81.5441 51.7156C83.628 51.5046 85.6272 51.2717 87.309 51.0708C87.7029 51.0238 88.0818 50.9782 88.4415 50.9349C89.5997 50.7955 90.5592 50.68 91.1816 50.617C94.2911 50.302 96.8563 52.653 97.647 55.2049C98.0725 56.5781 98.0566 58.1638 97.3142 59.6612C96.5726 61.1569 95.2206 62.338 93.3826 63.1382C86.5419 66.1166 78.6393 68.8094 67.6054 69.0372C58.6637 69.2218 48.2172 65.8794 44.0725 64.1907C42.6452 63.6601 40.2456 62.8926 37.7306 62.3324C35.1264 61.7524 32.6939 61.4642 31.0991 61.7028C30.4904 61.7939 29.7217 61.9163 28.8445 62.056C26.9097 62.3642 24.4471 62.7564 22.0091 63.0816C18.5151 63.5478 14.6989 63.9332 12.2346 63.6947L10 63.4785L10.2162 61.2439C10.2868 60.5145 10.3336 59.4642 10.3916 58.1616C10.4016 57.9385 10.4118 57.708 10.4226 57.4704C10.4944 55.8886 10.5865 54.0635 10.7563 52.2821C10.9248 50.5157 11.1773 48.7029 11.594 47.1642C11.8028 46.3934 12.0694 45.6278 12.4234 44.9455C12.7697 44.2782 13.268 43.5572 14.0055 43.0324C15.0835 42.2655 16.3467 42.2697 17.1163 42.3137C17.6413 42.3437 18.3023 42.4295 18.9088 42.5082C19.1974 42.5456 19.4737 42.5815 19.7171 42.609C21.4495 42.8045 23.227 42.8342 25.0738 41.9836C27.7962 40.7297 29.2446 39.3769 30.7285 37.9909C31.1771 37.5719 31.6289 37.1499 32.1202 36.7266C33.1782 35.8151 34.4006 34.9438 36.0609 34.4026ZM56.1808 46.5792C56.1688 46.5531 56.172 46.5549 56.1814 46.5806L56.1808 46.5792Z" fill="#DA3831"/>
<path fill-rule="evenodd" clip-rule="evenodd" d="M73.3507 15.9034C64.9015 16.7781 58.8591 24.1122 59.6916 32.154L54.8547 32.6548C53.732 21.8112 61.8617 12.2041 72.85 11.0664C83.8382 9.92876 93.7637 17.6666 94.8863 28.5102C96.009 39.3539 87.8794 48.961 76.8911 50.0987L76.3903 45.2617C84.8395 44.3869 90.882 37.0529 90.0494 29.011C89.2168 20.9691 81.7999 15.0286 73.3507 15.9034Z" fill="#DA3831"/>
<path d="M81.2607 30.6758V31.7838C81.2459 33.3351 80.9726 34.6906 80.4407 35.8504C79.9089 37.0028 79.1517 37.8856 78.1692 38.4987C77.1941 39.1118 76.0602 39.4184 74.7674 39.4184C74.1765 39.4184 73.4821 39.3519 72.6843 39.2189V32.5484L69.9806 33.7783V31.806L72.6843 30.576V28.8807L69.9806 30.1107V28.1383L72.6843 26.9084V23.0855H74.8118V25.9333L77.593 24.659V26.6313L74.8118 27.9056V29.6009L77.593 28.3267V30.299L74.8118 31.5733V37.6233C76.2153 37.6085 77.2864 37.0988 78.0251 36.0942C78.7712 35.0896 79.1443 33.6084 79.1443 31.6509V30.6758H81.2607Z" fill="#DA3831"/>
</svg>
