<svg width="45" height="52" viewBox="0 0 45 52" fill="none" xmlns="http://www.w3.org/2000/svg">
<path fill-rule="evenodd" clip-rule="evenodd" d="M11.9498 36.2486C11.21 36.9438 10.2065 37.8868 8.53756 38.6554C7.10349 39.3159 5.76495 39.254 4.79022 39.1439C4.57193 39.1193 4.39422 39.0958 4.23975 39.0754C4.01119 39.0451 3.83353 39.0216 3.65057 39.0112C3.58163 39.0072 3.53096 39.0071 3.49526 39.0082C3.47841 39.0332 3.457 39.0683 3.43212 39.1163C3.35623 39.2625 3.27605 39.474 3.19921 39.7577C3.04511 40.3266 2.93678 41.0622 2.85937 41.8739C2.78267 42.6783 2.73996 43.5154 2.70536 44.2784C2.70044 44.3868 2.69566 44.4945 2.69094 44.601C2.68419 44.7531 2.67756 44.9026 2.67081 45.0477C3.55266 45.0171 4.67589 44.8994 5.85644 44.7419C7.01152 44.5878 8.13965 44.408 9.06437 44.2607C9.50292 44.1908 9.89573 44.1282 10.224 44.0791C11.4171 43.9006 12.928 44.1221 14.2296 44.412C15.5654 44.7095 16.8318 45.1149 17.603 45.4027L17.6187 45.4085L17.6343 45.4149C19.5201 46.1855 24.2716 47.6878 28.1785 47.6072C33.146 47.5046 36.6848 46.3037 39.8378 44.931C40.3696 44.6994 40.5789 44.4416 40.6615 44.275C40.7437 44.1092 40.7554 43.925 40.6938 43.7264C40.5416 43.2349 40.1007 42.9999 39.859 43.0244C39.5799 43.0527 39.1463 43.1048 38.5935 43.1714C38.4152 43.1928 38.2245 43.2158 38.0225 43.2399C37.2039 43.3377 36.2207 43.4522 35.1921 43.5564C33.1608 43.7621 30.8678 43.9369 29.3135 43.8404L29.2948 43.8392L29.2762 43.8374C28.311 43.744 26.7889 43.4848 25.295 43.0033C23.8458 42.5361 22.2153 41.7958 21.2489 40.6223C21.0321 40.359 20.8416 40.0881 20.7157 39.8142C20.6005 39.5636 20.4568 39.1318 20.617 38.6562C20.7976 38.1201 21.2355 37.8808 21.5335 37.7869C21.817 37.6976 22.1056 37.6903 22.3225 37.6984C22.7684 37.7149 23.2915 37.817 23.7506 37.9182C23.9808 37.969 24.2147 38.0243 24.4352 38.0763L24.4594 38.0821C24.6905 38.1366 24.9055 38.1873 25.1041 38.2303C25.4306 38.3012 25.9911 38.4126 26.5353 38.4841C26.8081 38.5199 27.059 38.5432 27.265 38.5488C27.4527 38.554 27.543 38.5422 27.5637 38.5394C27.5685 38.5388 27.5696 38.5387 27.5673 38.5393C28.2015 38.3542 28.487 38.119 28.6075 37.967C28.7146 37.8319 28.7397 37.7056 28.7223 37.5701C28.6755 37.204 28.3193 36.8208 27.9925 36.7414C25.3152 36.0909 18.9667 35.2737 15.6094 34.9489C14.6615 34.8571 14.056 34.9354 13.6222 35.0768C13.1957 35.2158 12.8549 35.4413 12.4593 35.7822C12.3016 35.918 12.1339 36.0756 11.9498 36.2486ZM12.9484 33.0096C13.7451 32.7499 14.6678 32.6733 15.8188 32.7847C19.1777 33.1097 25.6635 33.938 28.5059 34.6286C29.7048 34.92 30.7173 36.0311 30.879 37.294C30.9659 37.973 30.8053 38.6947 30.3113 39.3178C29.8307 39.924 29.0997 40.357 28.1767 40.6265C27.8514 40.7214 27.4887 40.7301 27.2054 40.7223C26.8971 40.7138 26.5656 40.6809 26.2524 40.6398C25.6247 40.5575 24.9993 40.4324 24.6432 40.3552C24.5537 40.3358 24.462 40.3152 24.3696 40.294C24.838 40.5304 25.377 40.7453 25.9621 40.9339C27.276 41.3574 28.6315 41.5891 29.4669 41.6715C30.8215 41.7529 32.9386 41.5993 34.9731 41.3932C35.9821 41.291 36.9502 41.1783 37.7646 41.081C37.9554 41.0582 38.1388 41.0361 38.313 41.0151C38.8739 40.9476 39.3385 40.8917 39.6399 40.8612C41.1456 40.7087 42.3878 41.8471 42.7707 43.0828C42.9767 43.7478 42.969 44.5157 42.6095 45.2408C42.2504 45.965 41.5957 46.537 40.7057 46.9245C37.3932 48.3667 33.5664 49.6706 28.2234 49.781C23.8935 49.8704 18.8349 48.2519 16.8279 47.4341C16.1367 47.1772 14.9748 46.8055 13.7569 46.5343C12.4958 46.2534 11.3179 46.1139 10.5457 46.2294C10.2509 46.2735 9.87866 46.3328 9.45391 46.4004C8.51698 46.5496 7.32451 46.7396 6.14396 46.8971C4.45201 47.1228 2.60409 47.3094 1.41076 47.1939L0.328682 47.0892L0.433396 46.0071C0.467573 45.654 0.490231 45.1453 0.518328 44.5146C0.523142 44.4065 0.528114 44.2949 0.533332 44.1799C0.56807 43.4139 0.61268 42.5302 0.694935 41.6675C0.776495 40.8122 0.898763 39.9343 1.10057 39.1893C1.20167 38.816 1.33078 38.4452 1.5022 38.1149C1.66986 37.7917 1.91115 37.4426 2.26832 37.1885C2.79033 36.8171 3.402 36.8191 3.77465 36.8404C4.02891 36.855 4.34898 36.8965 4.64264 36.9346C4.78242 36.9527 4.91621 36.9701 5.03408 36.9834C5.87295 37.0781 6.73369 37.0925 7.62799 36.6806C8.94628 36.0734 9.64764 35.4183 10.3662 34.7472C10.5834 34.5443 10.8022 34.3399 11.0401 34.1349C11.5525 33.6936 12.1444 33.2716 12.9484 33.0096ZM22.6912 38.9059C22.6854 38.8933 22.6869 38.8942 22.6915 38.9066C22.6914 38.9064 22.6913 38.9062 22.6912 38.9059Z" fill="#CD433B"/>
<path d="M20.8972 32.6283V11.1216C20.8972 8.91244 22.6881 7.12158 24.8972 7.12158H39.8533C42.0624 7.12158 43.8533 8.91244 43.8533 11.1216V33.2196C43.8533 35.4287 42.0624 37.2196 39.8533 37.2196H32.3753" stroke="#CD433B" stroke-width="2"/>
<path d="M28.0369 10.6926V2.56345C28.0369 2.04235 28.3429 1.00015 29.5673 1.00015C30.7916 1.00015 33.6484 1 35.1788 1C36.4541 1 36.7092 1.93798 36.7092 2.56338C36.7092 5.06465 36.7092 9.33771 36.7092 10.6926" stroke="#CD433B" stroke-width="2"/>
</svg>
