<svg width="24" height="24" viewBox="0 0 24 24" fill="none" xmlns="http://www.w3.org/2000/svg">
<path d="M17.5034 0H6.49657C2.9143 0 0 2.9143 0 6.49657V17.5036C0 21.0857 2.9143 24 6.49657 24H17.5036C21.0857 24 24 21.0857 24 17.5036V6.49657C24 2.9143 21.0857 0 17.5034 0V0ZM22.593 17.5036C22.593 20.3098 20.3098 22.593 17.5034 22.593H6.49657C3.69012 22.593 1.40698 20.3098 1.40698 17.5036V6.49657C1.40698 3.69012 3.69012 1.40698 6.49657 1.40698H17.5036C20.3098 1.40698 22.593 3.69012 22.593 6.49657V17.5036Z" fill="white"/>
<path d="M12 5.43799C8.38153 5.43799 5.43774 8.38177 5.43774 12.0003C5.43774 15.6188 8.38153 18.5626 12 18.5626C15.6186 18.5626 18.5624 15.6188 18.5624 12.0003C18.5624 8.38177 15.6186 5.43799 12 5.43799ZM12 17.1556C9.15753 17.1556 6.84472 14.843 6.84472 12.0003C6.84472 9.15777 9.15753 6.84497 12 6.84497C14.8428 6.84497 17.1554 9.15777 17.1554 12.0003C17.1554 14.843 14.8428 17.1556 12 17.1556Z" fill="white"/>
<path d="M18.7191 3.10693C17.6498 3.10693 16.78 3.97687 16.78 5.04602C16.78 6.11535 17.6498 6.98528 18.7191 6.98528C19.7884 6.98528 20.6584 6.11535 20.6584 5.04602C20.6584 3.97668 19.7884 3.10693 18.7191 3.10693ZM18.7191 5.57812C18.4258 5.57812 18.187 5.33935 18.187 5.04602C18.187 4.7525 18.4258 4.51391 18.7191 4.51391C19.0126 4.51391 19.2514 4.7525 19.2514 5.04602C19.2514 5.33935 19.0126 5.57812 18.7191 5.57812Z" fill="white"/>
</svg>
