<svg width="15" height="15" viewBox="0 0 15 15" fill="none" xmlns="http://www.w3.org/2000/svg">
<path d="M7.50033 0C4.50487 0 2.0679 2.43697 2.0679 5.4324C2.0679 9.14982 6.9294 14.6072 7.13638 14.8377C7.33079 15.0543 7.67023 15.0539 7.86429 14.8377C8.07127 14.6072 12.9328 9.14982 12.9328 5.4324C12.9327 2.43697 10.4958 0 7.50033 0ZM7.50033 8.1656C5.99324 8.1656 4.76717 6.93949 4.76717 5.4324C4.76717 3.92531 5.99327 2.69924 7.50033 2.69924C9.0074 2.69924 10.2335 3.92534 10.2335 5.43243C10.2335 6.93952 9.0074 8.1656 7.50033 8.1656Z" fill="black"/>
</svg>
