<svg width="15" height="15" viewBox="0 0 15 15" fill="none" xmlns="http://www.w3.org/2000/svg">
<g clip-path="url(#clip0_1:1963)">
<path d="M6.21086 8.78872C4.77913 7.357 4.45586 5.92528 4.38293 5.35166C4.36255 5.19305 4.41713 5.03399 4.5306 4.92131L5.68922 3.76321C5.85966 3.59288 5.8899 3.32743 5.76215 3.12312L3.91741 0.258639C3.77608 0.0324101 3.48589 -0.0492381 3.24732 0.0701044L0.285859 1.46485C0.0929431 1.55984 -0.0205274 1.76481 0.00137611 1.97872C0.156549 3.45286 0.799221 7.07666 4.36043 10.6381C7.92163 14.1996 11.5449 14.842 13.0198 14.9972C13.2337 15.0191 13.4387 14.9056 13.5337 14.7127L14.9284 11.7512C15.0473 11.5132 14.9662 11.2238 14.7409 11.0822L11.8765 9.23795C11.6723 9.11007 11.4068 9.1401 11.2364 9.31036L10.0783 10.469C9.9656 10.5825 9.80653 10.637 9.64793 10.6167C9.07431 10.5437 7.64258 10.2204 6.21086 8.78872Z" fill="black"/>
<path d="M11.8959 8.01722C11.6102 8.01722 11.3787 7.78564 11.3787 7.49997C11.3762 5.35849 9.64084 3.62309 7.49936 3.62066C7.21369 3.62066 6.98212 3.38909 6.98212 3.10342C6.98212 2.81776 7.21369 2.58618 7.49936 2.58618C10.2119 2.58917 12.4102 4.7874 12.4132 7.49997C12.4132 7.78564 12.1816 8.01722 11.8959 8.01722Z" fill="black"/>
<path d="M14.4821 8.01724C14.1965 8.01724 13.9649 7.78566 13.9649 7.5C13.9609 3.93085 11.0685 1.03847 7.49936 1.03448C7.21369 1.03448 6.98212 0.802906 6.98212 0.517241C6.98212 0.231577 7.21369 0 7.49936 0C11.6396 0.004561 14.9948 3.35975 14.9994 7.5C14.9994 7.63718 14.9449 7.76874 14.8479 7.86574C14.7509 7.96275 14.6193 8.01724 14.4821 8.01724Z" fill="black"/>
</g>
<defs>
<clipPath id="clip0_1:1963">
<rect width="15" height="15" fill="white"/>
</clipPath>
</defs>
</svg>
