<svg width="43" height="41" viewBox="0 0 43 41" fill="none" xmlns="http://www.w3.org/2000/svg">
<path fill-rule="evenodd" clip-rule="evenodd" d="M27.0177 2.34947C19.7513 2.34947 13.8607 8.24008 13.8607 15.5065C13.8607 18.1167 14.6196 20.546 15.9283 22.5902L13.9496 23.857C12.406 21.446 11.5112 18.5789 11.5112 15.5065C11.5112 6.9425 18.4537 0 27.0177 0C35.5817 0 42.5242 6.9425 42.5242 15.5065C42.5242 24.0705 35.5817 31.013 27.0177 31.013V28.6635C34.2842 28.6635 40.1748 22.7729 40.1748 15.5065C40.1748 8.24008 34.2842 2.34947 27.0177 2.34947Z" fill="#CD433B"/>
<path fill-rule="evenodd" clip-rule="evenodd" d="M10.0172 27.3648C9.38861 27.9555 8.53604 28.7567 7.11796 29.4098C5.89949 29.971 4.76219 29.9183 3.934 29.8248C3.74852 29.8039 3.59753 29.7839 3.46629 29.7666C3.27209 29.7409 3.12113 29.7209 2.96568 29.712C2.90711 29.7087 2.86405 29.7085 2.83372 29.7095C2.8194 29.7308 2.80121 29.7606 2.78007 29.8013C2.71559 29.9256 2.64747 30.1052 2.58218 30.3463C2.45125 30.8297 2.3592 31.4547 2.29344 32.1444C2.22826 32.8279 2.19197 33.5391 2.16257 34.1874C2.1584 34.2795 2.15434 34.371 2.15032 34.4615C2.14459 34.5907 2.13896 34.7177 2.13322 34.8411C2.88249 34.815 3.83686 34.715 4.83992 34.5812C5.82135 34.4503 6.77987 34.2975 7.56557 34.1723C7.93819 34.1129 8.27194 34.0597 8.55083 34.018C9.5646 33.8663 10.8484 34.0546 11.9543 34.3009C13.0893 34.5537 14.1652 34.8981 14.8205 35.1426L14.8339 35.1476L14.8471 35.153C16.4494 35.8077 20.4865 37.0842 23.8061 37.0157C28.0267 36.9286 31.0335 35.9082 33.7125 34.7418C34.1643 34.5451 34.3422 34.3261 34.4124 34.1845C34.4823 34.0436 34.4922 33.8871 34.4399 33.7183C34.3105 33.3008 33.9359 33.1011 33.7305 33.1219C33.4934 33.1459 33.125 33.1902 32.6553 33.2468C32.5038 33.265 32.3417 33.2845 32.1702 33.305C31.4746 33.3881 30.6392 33.4854 29.7653 33.5739C28.0394 33.7487 26.0911 33.8972 24.7705 33.8152L24.7546 33.8142L24.7387 33.8127C23.9186 33.7333 22.6254 33.5131 21.3561 33.1039C20.1247 32.707 18.7394 32.078 17.9183 31.0809C17.734 30.8572 17.5722 30.6271 17.4652 30.3943C17.3674 30.1814 17.2453 29.8145 17.3814 29.4104C17.5349 28.9549 17.9069 28.7516 18.1601 28.6718C18.401 28.596 18.6462 28.5898 18.8305 28.5966C19.2093 28.6106 19.6538 28.6974 20.0439 28.7834C20.2395 28.8265 20.4382 28.8735 20.6256 28.9177L20.6461 28.9226C20.8425 28.969 21.0251 29.012 21.1938 29.0486C21.4713 29.1088 21.9476 29.2035 22.4099 29.2642C22.6417 29.2946 22.8549 29.3144 23.0299 29.3192C23.1894 29.3236 23.2661 29.3135 23.2837 29.3112C23.2878 29.3107 23.2887 29.3106 23.2868 29.3111C23.8256 29.1538 24.0682 28.954 24.1706 28.8249C24.2616 28.7101 24.2829 28.6027 24.2682 28.4876C24.2283 28.1766 23.9257 27.851 23.648 27.7835C21.3733 27.2308 15.9792 26.5365 13.1266 26.2604C12.3212 26.1825 11.8067 26.249 11.4382 26.3691C11.0758 26.4873 10.7862 26.6789 10.4501 26.9685C10.3162 27.0839 10.1736 27.2178 10.0172 27.3648ZM10.8657 24.6127C11.5426 24.392 12.3266 24.327 13.3045 24.4217C16.1585 24.6978 21.6692 25.4016 24.0842 25.9884C25.1029 26.2359 25.9632 27.18 26.1006 28.253C26.1745 28.8299 26.038 29.4432 25.6182 29.9726C25.2099 30.4876 24.5888 30.8555 23.8045 31.0845C23.5281 31.1652 23.22 31.1725 22.9792 31.1659C22.7173 31.1587 22.4357 31.1308 22.1696 31.0958C21.6363 31.0259 21.1049 30.9196 20.8023 30.854C20.7262 30.8375 20.6484 30.82 20.5698 30.802C20.9678 31.0029 21.4258 31.1854 21.9229 31.3457C23.0392 31.7055 24.191 31.9024 24.9008 31.9724C26.0518 32.0416 27.8505 31.911 29.5792 31.7359C30.4365 31.6491 31.2591 31.5533 31.951 31.4707C32.1131 31.4513 32.269 31.4325 32.417 31.4147C32.8935 31.3574 33.2883 31.3099 33.5444 31.2839C34.8238 31.1543 35.8792 32.1216 36.2045 33.1716C36.3795 33.7366 36.373 34.389 36.0675 35.0051C35.7624 35.6204 35.2062 36.1064 34.45 36.4356C31.6354 37.661 28.384 38.7689 23.8442 38.8627C20.1653 38.9386 15.8672 37.5635 14.1619 36.8687C13.5747 36.6504 12.5874 36.3346 11.5526 36.1041C10.4812 35.8654 9.48032 35.7469 8.82418 35.8451C8.57371 35.8825 8.25745 35.9329 7.89655 35.9904C7.10048 36.1172 6.08728 36.2785 5.08422 36.4123C3.64664 36.6041 2.07653 36.7627 1.06261 36.6646L0.143208 36.5756L0.232179 35.6562C0.261218 35.3561 0.28047 34.924 0.304343 34.3881C0.308433 34.2963 0.312658 34.2014 0.317091 34.1037C0.346607 33.4529 0.38451 32.702 0.454398 31.969C0.523697 31.2422 0.627583 30.4964 0.799049 29.8633C0.884955 29.5462 0.994651 29.2312 1.1403 28.9505C1.28276 28.6759 1.48777 28.3793 1.79124 28.1634C2.23477 27.8478 2.75448 27.8495 3.07111 27.8676C3.28715 27.88 3.5591 27.9153 3.80861 27.9477C3.92737 27.9631 4.04105 27.9778 4.1412 27.9891C4.85395 28.0696 5.58529 28.0818 6.34514 27.7318C7.46524 27.2159 8.06115 26.6593 8.67168 26.0891C8.85625 25.9167 9.04216 25.743 9.24429 25.5689C9.6796 25.1939 10.1825 24.8354 10.8657 24.6127ZM19.1437 29.6226C19.1388 29.6119 19.1401 29.6126 19.144 29.6232C19.1439 29.623 19.1438 29.6228 19.1437 29.6226Z" fill="#CD433B"/>
<path fill-rule="evenodd" clip-rule="evenodd" d="M36.6693 11.553L26.8015 20.9509L25.8293 19.9301L35.6971 10.5322L36.6693 11.553Z" fill="#CD433B"/>
<path fill-rule="evenodd" clip-rule="evenodd" d="M28.4273 12.9221C28.8165 12.9221 29.1321 12.6066 29.1321 12.2173C29.1321 11.828 28.8165 11.5125 28.4273 11.5125C28.038 11.5125 27.7224 11.828 27.7224 12.2173C27.7224 12.6066 28.038 12.9221 28.4273 12.9221ZM28.4273 14.3318C29.5951 14.3318 30.5418 13.3851 30.5418 12.2173C30.5418 11.0495 29.5951 10.1028 28.4273 10.1028C27.2594 10.1028 26.3127 11.0495 26.3127 12.2173C26.3127 13.3851 27.2594 14.3318 28.4273 14.3318Z" fill="#CD433B"/>
<path fill-rule="evenodd" clip-rule="evenodd" d="M34.0672 19.0308C34.4564 19.0308 34.772 18.7152 34.772 18.3259C34.772 17.9367 34.4564 17.6211 34.0672 17.6211C33.6779 17.6211 33.3623 17.9367 33.3623 18.3259C33.3623 18.7152 33.6779 19.0308 34.0672 19.0308ZM34.0672 20.4405C35.235 20.4405 36.1817 19.4938 36.1817 18.3259C36.1817 17.1581 35.235 16.2114 34.0672 16.2114C32.8993 16.2114 31.9526 17.1581 31.9526 18.3259C31.9526 19.4938 32.8993 20.4405 34.0672 20.4405Z" fill="#CD433B"/>
<path fill-rule="evenodd" clip-rule="evenodd" d="M21.6147 11.5125H19.2652C18.7462 11.5125 18.3255 11.9332 18.3255 12.4523V19.0308C18.3255 19.5498 18.7462 19.9706 19.2652 19.9706H21.6147C22.1337 19.9706 22.5545 19.5498 22.5545 19.0308V12.4523C22.5545 11.9332 22.1337 11.5125 21.6147 11.5125ZM19.2652 10.1028C17.9677 10.1028 16.9158 11.1547 16.9158 12.4523V19.0308C16.9158 20.3283 17.9677 21.3802 19.2652 21.3802H21.6147C22.9123 21.3802 23.9642 20.3283 23.9642 19.0308V12.4523C23.9642 11.1547 22.9123 10.1028 21.6147 10.1028H19.2652Z" fill="#CD433B"/>
</svg>
