<svg width="24" height="24" viewBox="0 0 24 24" fill="none" xmlns="http://www.w3.org/2000/svg">
<path d="M17.6617 0H6.33832C2.784 0 0 2.784 0 6.33832V17.6617C0 21.216 2.784 24 6.33832 24H17.6617C21.216 24 24 21.216 24 17.6617V6.33832C24 2.784 21.2152 0 17.6617 0ZM22.4516 17.6617C22.4516 20.3481 20.3474 22.4516 17.6617 22.4516H6.33832C3.65265 22.4516 1.54839 20.3474 1.54839 17.6617V6.33832C1.54839 3.65265 3.65265 1.54839 6.33832 1.54839H17.6617C20.3481 1.54839 22.4516 3.65265 22.4516 6.33832V17.6617Z" fill="white"/>
<path d="M19.5477 6.12778C19.2992 5.94584 18.9663 5.93036 18.7008 6.0852C18.436 6.24081 17.8491 6.31746 17.3784 6.37939C17.2809 6.39255 17.1849 6.40494 17.092 6.4181C16.4331 5.87152 15.5916 5.56494 14.7237 5.56494C12.7689 5.56494 11.1648 7.07772 11.0509 8.98068C9.27805 8.68184 7.65456 7.75746 6.50411 6.36855C6.33301 6.16107 6.06746 6.05965 5.79959 6.09449C5.53327 6.13165 5.30566 6.3043 5.19805 6.55049C5.1485 6.66352 4.7165 7.72649 4.7165 10.3557C4.7165 12.6326 6.5134 14.3056 7.74592 15.1858C6.90282 15.5691 5.93121 15.71 5.00837 15.6078C4.64759 15.5691 4.31005 15.7812 4.19082 16.1211C4.07159 16.4617 4.20321 16.8395 4.50824 17.0323C5.96372 17.9505 7.64605 18.4359 9.37405 18.4359C14.9235 18.4359 18.2819 14.0764 18.4066 9.7781C18.566 9.54662 18.8703 9.09604 19.3844 8.30559C19.5903 7.98739 19.7629 7.30146 19.8473 6.92133C19.9147 6.62094 19.7962 6.30894 19.5477 6.12778ZM17.0099 9.07436C16.9147 9.20597 16.8628 9.36546 16.8628 9.52804C16.8628 12.5838 14.5395 16.8875 9.37482 16.8875C8.90798 16.8875 8.44501 16.8449 7.99134 16.7613C8.59676 16.5322 9.16888 16.2124 9.69456 15.8075C9.90514 15.6457 10.0174 15.3856 9.99263 15.1216C9.96785 14.8576 9.80914 14.6238 9.57147 14.5038C9.53817 14.4867 6.26566 12.7657 6.26566 10.3564C6.26566 9.54894 6.30901 8.9141 6.3663 8.43101C7.88605 9.73939 9.81998 10.5221 11.8553 10.6227C11.8708 10.6235 11.8871 10.6243 11.9018 10.6235C12.3524 10.6104 12.6837 10.2798 12.6837 9.84933C12.6837 9.74249 12.662 9.64107 12.6226 9.54817C12.6032 9.43204 12.5931 9.31513 12.5931 9.19823C12.5931 8.04855 13.5485 7.11333 14.7237 7.11333C15.3137 7.11333 15.8811 7.35488 16.2814 7.77526C16.4641 7.96572 16.7312 8.05165 16.989 8.00133C17.1648 7.96804 17.3676 7.94172 17.5805 7.91384C17.6564 7.90378 17.733 7.89372 17.8112 7.88288C17.2298 8.76855 17.02 9.06043 17.0099 9.07436Z" fill="white"/>
</svg>
