<svg width="70" height="42" viewBox="0 0 70 42" fill="none" xmlns="http://www.w3.org/2000/svg">
<path fill-rule="evenodd" clip-rule="evenodd" d="M33.9265 0.245374C35.5386 0.0303524 37.1781 0.307673 38.6297 1.04095C40.0814 1.77422 41.2775 2.9292 42.0611 4.35434C42.8448 5.77948 43.1793 7.40821 43.0208 9.02684L39.8894 8.72027C39.9861 7.733 39.782 6.73957 39.3041 5.87033C38.8261 5.00108 38.0966 4.29662 37.2111 3.84938C36.3257 3.40213 35.3258 3.23299 34.3425 3.36413C33.3593 3.49528 32.4386 3.9206 31.7014 4.58428C30.9641 5.24796 30.4447 6.11901 30.2113 7.08314C29.9779 8.04727 30.0413 9.05945 30.3934 9.98687C30.7454 10.9143 31.3696 11.7136 32.1839 12.28C32.7071 12.6438 33.001 12.8158 33.2665 12.9177C33.5019 13.0081 33.7893 13.071 34.3069 13.0748L34.2838 16.2211C33.4923 16.2152 32.8123 16.1137 32.1388 15.8551C31.4955 15.6081 30.9391 15.2468 30.3875 14.8631C29.0523 13.9345 28.0289 12.624 27.4518 11.1034C26.8746 9.58294 26.7706 7.92346 27.1533 6.34276C27.536 4.76206 28.3875 3.33396 29.5963 2.24584C30.805 1.15772 32.3145 0.460396 33.9265 0.245374Z" fill="#CD433B"/>
<path fill-rule="evenodd" clip-rule="evenodd" d="M33.0378 18.896L33.037 14.6481L36.1834 14.6475L36.1847 21.2674L35.0434 21.5935C30.5998 22.8631 23.7927 24.891 17.8177 26.8468C14.8281 27.8253 12.0646 28.7801 9.91534 29.6089C8.83932 30.0238 7.9365 30.3998 7.24447 30.7253C6.50539 31.0728 6.14682 31.2995 6.04101 31.3912C4.55009 32.6833 3.87046 33.3059 3.50653 33.8258C3.25544 34.1845 3.14638 34.495 3.14638 35.3586C3.14638 36.2415 3.31034 37.0034 3.54669 37.5077C3.71727 37.8716 3.85558 37.9748 3.9008 38C3.91156 38.0003 3.9275 38.0008 3.9493 38.0016C4.018 38.004 4.14494 38.0085 4.35151 38.013C4.69963 38.0205 5.18785 38.0273 5.80488 38.0333C7.0376 38.0453 8.76592 38.0541 10.8762 38.0601C15.0959 38.0723 20.831 38.0735 27.1572 38.0679C39.6936 38.0569 54.5444 38.0193 64.5058 37.9876C64.9992 37.7927 65.6277 37.4506 66.0962 37.008C66.6217 36.5115 66.7636 36.0871 66.6796 35.6671C66.3813 34.1756 66.2423 33.8268 65.9774 33.5178C65.6205 33.1014 64.9564 32.6723 63.0416 31.5638C62.4371 31.2138 61.1938 30.6735 59.4661 30.0059C57.7733 29.3519 55.7114 28.6116 53.5381 27.8602C49.193 26.358 44.4438 24.8256 41.3989 23.8741L42.3374 20.8709C45.4035 21.8291 50.1838 23.3714 54.5662 24.8865C56.7566 25.6438 58.8578 26.3978 60.6001 27.071C62.3075 27.7307 63.7712 28.3505 64.6181 28.8408L64.6657 28.8684C66.3549 29.8463 67.5847 30.5583 68.3663 31.4702C69.2473 32.4979 69.4902 33.6769 69.7648 35.05C70.1392 36.9217 69.2307 38.3751 68.257 39.295C67.299 40.2002 66.1058 40.7779 65.2822 41.0524L65.0425 41.1323L64.7897 41.1331C54.8267 41.1649 39.8151 41.2031 27.16 41.2143C20.8327 41.2198 15.0929 41.2187 10.8672 41.2065C8.75483 41.2004 7.01792 41.1916 5.77423 41.1795C5.15305 41.1735 4.65028 41.1665 4.28353 41.1586C3.98135 41.1521 3.63746 41.1439 3.45139 41.1173C2.03219 40.9146 1.16297 39.8355 0.697774 38.8431C0.217986 37.8196 0 36.5763 0 35.3586C0 34.1215 0.177398 33.0951 0.928911 32.0215C1.56757 31.1091 2.60669 30.204 3.98034 29.0135C4.44744 28.6087 5.16508 28.2262 5.90553 27.878C6.69303 27.5077 7.67307 27.1013 8.78327 26.6732C11.0065 25.8159 13.8288 24.8418 16.8389 23.8565C22.3711 22.0457 28.5972 20.1777 33.0378 18.896Z" fill="#CD433B"/>
<path d="M36.183 14.6479C36.183 13.704 35.5537 13.0747 34.2952 13.0747V15.5182C35.0356 16.1846 36.183 15.0928 36.183 14.6479Z" fill="#CD433B"/>
</svg>
